<?xml version="1.0" encoding="utf-8"?>
<!-- Generator: Adobe Illustrator 27.2.0, SVG Export Plug-In . SVG Version: 6.00 Build 0)  -->
<svg version="1.1" id="Capa_1" xmlns="http://www.w3.org/2000/svg" xmlns:xlink="http://www.w3.org/1999/xlink" x="0px" y="0px"
	 viewBox="0 0 187 100" style="enable-background:new 0 0 187 100;" xml:space="preserve">
<style type="text/css">
	.st0{opacity:0.29;}
	.st1{fill:url(#SVGID_1_);}
	.st2{fill:url(#SVGID_00000134945558963892316980000011401964151954115262_);}
	.st3{fill:url(#SVGID_00000002382906074132688540000017645666819976134793_);}
	.st4{fill:url(#SVGID_00000032611698009893998730000004690136550643910062_);}
	.st5{fill:url(#SVGID_00000084511399205001745070000002617335316335550867_);}
	.st6{fill:url(#SVGID_00000103954865785779889910000000071222832367872184_);}
	.st7{fill:url(#SVGID_00000155844239399875953320000013133996964420177044_);}
	.st8{fill:url(#SVGID_00000093897847580797239310000007065392782419727782_);}
	.st9{fill:url(#SVGID_00000007410120496278032580000014091400484572595899_);}
	.st10{fill:url(#SVGID_00000049925364357302725690000006202985915468146322_);}
	.st11{fill:url(#SVGID_00000057828650927648310650000013322015355773210517_);}
	.st12{fill:url(#SVGID_00000129925538167638619820000013389093681453088685_);}
	.st13{fill:url(#SVGID_00000116216677891201395060000000438876630120555709_);}
	.st14{fill:url(#SVGID_00000063606799704428088080000018355254151962335879_);}
	.st15{fill:url(#SVGID_00000030465181705589823590000003348487164328978820_);}
	.st16{fill:url(#SVGID_00000120527108496876708530000014741127937053697685_);}
	.st17{fill:url(#SVGID_00000101061294918429441350000000457359638101525407_);}
	.st18{fill:url(#SVGID_00000174577485052934233010000005654643278019772083_);}
	.st19{opacity:0.8;}
	.st20{fill:url(#SVGID_00000132052930795462053800000016082096363214582919_);}
	.st21{opacity:0.6;}
	.st22{fill:url(#SVGID_00000156581016973490553570000014541986806339825080_);}
</style>
<g class="st0">
	
		<linearGradient id="SVGID_1_" gradientUnits="userSpaceOnUse" x1="949.5156" y1="545.2023" x2="1031.6222" y2="545.2023" gradientTransform="matrix(0.7297 -0.6837 -0.6837 -0.7297 -223.2284 1133.1818)">
		<stop  offset="2.510000e-02" style="stop-color:#134582;stop-opacity:0"/>
		<stop  offset="0.2793" style="stop-color:#134582"/>
		<stop  offset="0.3711" style="stop-color:#164480"/>
		<stop  offset="0.4464" style="stop-color:#20437B"/>
		<stop  offset="0.516" style="stop-color:#324073"/>
		<stop  offset="0.5821" style="stop-color:#4A3B67"/>
		<stop  offset="0.6458" style="stop-color:#693658"/>
		<stop  offset="0.707" style="stop-color:#8F2F45"/>
		<stop  offset="0.7662" style="stop-color:#BB2730"/>
		<stop  offset="0.7682" style="stop-color:#BD272F"/>
		<stop  offset="1" style="stop-color:#CA1C23;stop-opacity:0"/>
	</linearGradient>
	<path class="st1" d="M124.9,51c2.6,6.5,1,9.2-0.9,11.4c-1.3,1.5-5.7,5.4-5.7,5.4L97.7,87l8.9,9.6l20.5-19.2l0,0
		c4.6-4.4,1.6-12.1,1.6-12.1c-2.6-6.5-1-9.2,0.9-11.4c1.3-1.5,5.7-5.4,5.7-5.4l0,0L156,29.2l-8.9-9.5l-20.5,19.3
		C121.8,43.2,124.9,51,124.9,51z"/>
	
		<linearGradient id="SVGID_00000158001761123543953530000017586226646105464470_" gradientUnits="userSpaceOnUse" x1="954.2976" y1="562.9059" x2="1036.4042" y2="562.9059" gradientTransform="matrix(0.7297 -0.6837 -0.6837 -0.7297 -223.2284 1133.1818)">
		<stop  offset="2.510000e-02" style="stop-color:#134582;stop-opacity:0"/>
		<stop  offset="0.2793" style="stop-color:#134582"/>
		<stop  offset="0.3711" style="stop-color:#164480"/>
		<stop  offset="0.4464" style="stop-color:#20437B"/>
		<stop  offset="0.516" style="stop-color:#324073"/>
		<stop  offset="0.5821" style="stop-color:#4A3B67"/>
		<stop  offset="0.6458" style="stop-color:#693658"/>
		<stop  offset="0.707" style="stop-color:#8F2F45"/>
		<stop  offset="0.7662" style="stop-color:#BB2730"/>
		<stop  offset="0.7682" style="stop-color:#BD272F"/>
		<stop  offset="1" style="stop-color:#CA1C23;stop-opacity:0"/>
	</linearGradient>
	<path style="fill:url(#SVGID_00000158001761123543953530000017586226646105464470_);" d="M117.9,22.7c-4.6,4.4-1.6,12.1-1.6,12.1
		c2.6,6.5,1,9.2-0.9,11.4c-1.3,1.5-5.7,5.4-5.7,5.4L89.1,70.8l8.9,9.6l20.5-19.2l0,0c4.6-4.4,1.6-12.1,1.6-12.1
		c-2.6-6.5-1-9.2,0.9-11.4c1.3-1.5,5.7-5.4,5.7-5.4l0,0L147.4,13l-8.9-9.5L117.9,22.7z"/>
</g>
<g>
	<g>
		<g>
			<g id="Logotype_00000170242624004171122540000010907864826111674019_">
				<g>
					<g>
						
							<linearGradient id="SVGID_00000065792715905034877450000018270255866358696852_" gradientUnits="userSpaceOnUse" x1="-0.1646" y1="-572.8439" x2="170.0356" y2="-668.2074" gradientTransform="matrix(1 0 0 -1 0 -560.8192)">
							<stop  offset="2.510000e-02" style="stop-color:#164483;stop-opacity:0"/>
							<stop  offset="0.2793" style="stop-color:#164483"/>
							<stop  offset="0.3715" style="stop-color:#194381"/>
							<stop  offset="0.4473" style="stop-color:#23427C"/>
							<stop  offset="0.5172" style="stop-color:#353F74"/>
							<stop  offset="0.5836" style="stop-color:#4D3A68"/>
							<stop  offset="0.6476" style="stop-color:#6C3558"/>
							<stop  offset="0.7088" style="stop-color:#922E45"/>
							<stop  offset="0.7682" style="stop-color:#BE262F"/>
							<stop  offset="1" style="stop-color:#CA1A23;stop-opacity:0"/>
						</linearGradient>
						<path style="fill:url(#SVGID_00000065792715905034877450000018270255866358696852_);" d="M31,25.7v6.9c0,0.7,0.2,1.2,0.5,1.6
							c0.3,0.4,0.8,0.6,1.5,0.6s1.2-0.2,1.5-0.6c0.4-0.4,0.5-0.9,0.5-1.6v-6.9h2.8v6.9c0,1-0.2,1.9-0.7,2.6c-0.4,0.7-1,1.2-1.8,1.6
							c-0.7,0.4-1.6,0.5-2.5,0.5c-0.9,0-1.7-0.2-2.4-0.5c-0.7-0.4-1.3-0.9-1.7-1.6c-0.4-0.7-0.6-1.6-0.6-2.6v-6.9H31z"/>
					</g>
					<g>
						
							<linearGradient id="SVGID_00000051342299266796864700000013346633569509856447_" gradientUnits="userSpaceOnUse" x1="1.401" y1="-570.0497" x2="171.6012" y2="-665.4131" gradientTransform="matrix(1 0 0 -1 0 -560.8192)">
							<stop  offset="2.510000e-02" style="stop-color:#164483;stop-opacity:0"/>
							<stop  offset="0.2793" style="stop-color:#164483"/>
							<stop  offset="0.3715" style="stop-color:#194381"/>
							<stop  offset="0.4473" style="stop-color:#23427C"/>
							<stop  offset="0.5172" style="stop-color:#353F74"/>
							<stop  offset="0.5836" style="stop-color:#4D3A68"/>
							<stop  offset="0.6476" style="stop-color:#6C3558"/>
							<stop  offset="0.7088" style="stop-color:#922E45"/>
							<stop  offset="0.7682" style="stop-color:#BE262F"/>
							<stop  offset="1" style="stop-color:#CA1A23;stop-opacity:0"/>
						</linearGradient>
						<path style="fill:url(#SVGID_00000051342299266796864700000013346633569509856447_);" d="M47.9,29c0.6,0.7,1,1.7,1,2.9v5.4
							h-2.8v-5c0-0.6-0.2-1.1-0.5-1.4c-0.3-0.3-0.7-0.5-1.3-0.5c-0.5,0-1,0.2-1.3,0.5s-0.5,0.8-0.5,1.4v5h-2.8V28h2.8v1.2
							c0.3-0.4,0.7-0.7,1.1-1c0.5-0.2,1-0.4,1.6-0.4C46.4,28,47.3,28.3,47.9,29z"/>
					</g>
					<g>
						
							<linearGradient id="SVGID_00000013914007455440876440000006116233906890896022_" gradientUnits="userSpaceOnUse" x1="4.8785" y1="-563.8433" x2="175.0787" y2="-659.2067" gradientTransform="matrix(1 0 0 -1 0 -560.8192)">
							<stop  offset="2.510000e-02" style="stop-color:#164483;stop-opacity:0"/>
							<stop  offset="0.2793" style="stop-color:#164483"/>
							<stop  offset="0.3715" style="stop-color:#194381"/>
							<stop  offset="0.4473" style="stop-color:#23427C"/>
							<stop  offset="0.5172" style="stop-color:#353F74"/>
							<stop  offset="0.5836" style="stop-color:#4D3A68"/>
							<stop  offset="0.6476" style="stop-color:#6C3558"/>
							<stop  offset="0.7088" style="stop-color:#922E45"/>
							<stop  offset="0.7682" style="stop-color:#BE262F"/>
							<stop  offset="1" style="stop-color:#CA1A23;stop-opacity:0"/>
						</linearGradient>
						<path style="fill:url(#SVGID_00000013914007455440876440000006116233906890896022_);" d="M62.5,29c0.6,0.7,1,1.7,1,2.9v5.4
							h-2.8v-5c0-0.6-0.2-1.1-0.5-1.4c-0.3-0.3-0.7-0.5-1.3-0.5c-0.5,0-1,0.2-1.3,0.5s-0.5,0.8-0.5,1.4v5h-2.8V28h2.8v1.2
							c0.3-0.4,0.7-0.7,1.1-1c0.5-0.2,1-0.4,1.6-0.4C61,28,61.8,28.3,62.5,29z"/>
					</g>
					<g>
						
							<linearGradient id="SVGID_00000006668273329017002850000006404629125116159142_" gradientUnits="userSpaceOnUse" x1="8.0669" y1="-558.1527" x2="178.2671" y2="-653.5162" gradientTransform="matrix(1 0 0 -1 0 -560.8192)">
							<stop  offset="2.510000e-02" style="stop-color:#164483;stop-opacity:0"/>
							<stop  offset="0.2793" style="stop-color:#164483"/>
							<stop  offset="0.3715" style="stop-color:#194381"/>
							<stop  offset="0.4473" style="stop-color:#23427C"/>
							<stop  offset="0.5172" style="stop-color:#353F74"/>
							<stop  offset="0.5836" style="stop-color:#4D3A68"/>
							<stop  offset="0.6476" style="stop-color:#6C3558"/>
							<stop  offset="0.7088" style="stop-color:#922E45"/>
							<stop  offset="0.7682" style="stop-color:#BE262F"/>
							<stop  offset="1" style="stop-color:#CA1A23;stop-opacity:0"/>
						</linearGradient>
						<path style="fill:url(#SVGID_00000006668273329017002850000006404629125116159142_);" d="M74.5,28v9.2h-2.8V36
							c-0.3,0.4-0.7,0.7-1.2,1c-0.5,0.2-1,0.4-1.6,0.4c-0.7,0-1.3-0.2-1.9-0.5c-0.5-0.3-1-0.8-1.2-1.4c-0.3-0.6-0.4-1.3-0.4-2.1V28
							h2.8v5c0,0.6,0.2,1.1,0.5,1.4c0.3,0.3,0.7,0.5,1.3,0.5c0.5,0,1-0.2,1.3-0.5c0.3-0.3,0.5-0.8,0.5-1.4v-5H74.5z"/>
					</g>
					<g>
						
							<linearGradient id="SVGID_00000080184809689022020850000003411320262567678874_" gradientUnits="userSpaceOnUse" x1="10.3297" y1="-554.1142" x2="180.5299" y2="-649.4776" gradientTransform="matrix(1 0 0 -1 0 -560.8192)">
							<stop  offset="2.510000e-02" style="stop-color:#164483;stop-opacity:0"/>
							<stop  offset="0.2793" style="stop-color:#164483"/>
							<stop  offset="0.3715" style="stop-color:#194381"/>
							<stop  offset="0.4473" style="stop-color:#23427C"/>
							<stop  offset="0.5172" style="stop-color:#353F74"/>
							<stop  offset="0.5836" style="stop-color:#4D3A68"/>
							<stop  offset="0.6476" style="stop-color:#6C3558"/>
							<stop  offset="0.7088" style="stop-color:#922E45"/>
							<stop  offset="0.7682" style="stop-color:#BE262F"/>
							<stop  offset="1" style="stop-color:#CA1A23;stop-opacity:0"/>
						</linearGradient>
						<path style="fill:url(#SVGID_00000080184809689022020850000003411320262567678874_);" d="M85.1,33.3h-6.4c0,0.6,0.2,1,0.6,1.3
							c0.3,0.3,0.7,0.5,1.2,0.5c0.7,0,1.2-0.3,1.5-0.9h3c-0.2,0.6-0.4,1.1-0.8,1.6c-0.4,0.5-0.9,0.9-1.5,1.1c-0.6,0.3-1.3,0.4-2,0.4
							c-0.9,0-1.7-0.2-2.4-0.6s-1.2-0.9-1.6-1.6s-0.6-1.5-0.6-2.5c0-1,0.2-1.8,0.6-2.5c0.4-0.7,0.9-1.3,1.6-1.6
							c0.7-0.4,1.5-0.6,2.4-0.6c0.9,0,1.7,0.2,2.4,0.6c0.7,0.4,1.2,0.9,1.6,1.6c0.4,0.7,0.6,1.5,0.6,2.4
							C85.1,32.7,85.1,33,85.1,33.3z M82.2,31.7c0-0.5-0.2-0.9-0.5-1.1s-0.7-0.4-1.2-0.4c-0.5,0-0.9,0.1-1.2,0.4s-0.5,0.7-0.6,1.2
							H82.2z"/>
					</g>
					<g>
						
							<linearGradient id="SVGID_00000098201732280651601050000002179098609262534537_" gradientUnits="userSpaceOnUse" x1="13.1527" y1="-549.0817" x2="183.3529" y2="-644.4451" gradientTransform="matrix(1 0 0 -1 0 -560.8192)">
							<stop  offset="2.510000e-02" style="stop-color:#164483;stop-opacity:0"/>
							<stop  offset="0.2793" style="stop-color:#164483"/>
							<stop  offset="0.3715" style="stop-color:#194381"/>
							<stop  offset="0.4473" style="stop-color:#23427C"/>
							<stop  offset="0.5172" style="stop-color:#353F74"/>
							<stop  offset="0.5836" style="stop-color:#4D3A68"/>
							<stop  offset="0.6476" style="stop-color:#6C3558"/>
							<stop  offset="0.7088" style="stop-color:#922E45"/>
							<stop  offset="0.7682" style="stop-color:#BE262F"/>
							<stop  offset="1" style="stop-color:#CA1A23;stop-opacity:0"/>
						</linearGradient>
						<path style="fill:url(#SVGID_00000098201732280651601050000002179098609262534537_);" d="M90.7,34.6l2-6.5h3l-3.3,9.2H89
							L85.7,28h3L90.7,34.6z"/>
					</g>
					<g>
						
							<linearGradient id="SVGID_00000002379306819129593840000000948599027468352444_" gradientUnits="userSpaceOnUse" x1="15.236" y1="-545.3576" x2="185.4362" y2="-640.721" gradientTransform="matrix(1 0 0 -1 0 -560.8192)">
							<stop  offset="2.510000e-02" style="stop-color:#164483;stop-opacity:0"/>
							<stop  offset="0.2793" style="stop-color:#164483"/>
							<stop  offset="0.3715" style="stop-color:#194381"/>
							<stop  offset="0.4473" style="stop-color:#23427C"/>
							<stop  offset="0.5172" style="stop-color:#353F74"/>
							<stop  offset="0.5836" style="stop-color:#4D3A68"/>
							<stop  offset="0.6476" style="stop-color:#6C3558"/>
							<stop  offset="0.7088" style="stop-color:#922E45"/>
							<stop  offset="0.7682" style="stop-color:#BE262F"/>
							<stop  offset="1" style="stop-color:#CA1A23;stop-opacity:0"/>
						</linearGradient>
						<path style="fill:url(#SVGID_00000002379306819129593840000000948599027468352444_);" d="M98.6,36.8c-0.7-0.4-1.3-0.9-1.7-1.6
							c-0.4-0.7-0.6-1.5-0.6-2.5c0-0.9,0.2-1.8,0.6-2.5c0.4-0.7,1-1.3,1.7-1.7c0.7-0.4,1.5-0.6,2.4-0.6s1.7,0.2,2.4,0.6
							c0.7,0.4,1.3,0.9,1.7,1.7c0.4,0.7,0.6,1.5,0.6,2.5c0,0.9-0.2,1.8-0.6,2.5c-0.4,0.7-1,1.3-1.7,1.7c-0.7,0.4-1.5,0.6-2.4,0.6
							C100.2,37.3,99.3,37.2,98.6,36.8z M102.4,34.3c0.4-0.4,0.6-1,0.6-1.7c0-0.7-0.2-1.3-0.6-1.7c-0.4-0.4-0.8-0.6-1.4-0.6
							c-0.5,0-1,0.2-1.4,0.6c-0.4,0.4-0.5,1-0.5,1.7c0,0.7,0.2,1.3,0.5,1.7c0.4,0.4,0.8,0.6,1.3,0.6
							C101.6,34.9,102.1,34.7,102.4,34.3z"/>
					</g>
				</g>
				<g>
					<g>
						
							<linearGradient id="SVGID_00000066477304898203589000000001238195739126571966_" gradientUnits="userSpaceOnUse" x1="-10.3312" y1="-590.9888" x2="159.869" y2="-686.3522" gradientTransform="matrix(1 0 0 -1 0 -560.8192)">
							<stop  offset="2.510000e-02" style="stop-color:#164483;stop-opacity:0"/>
							<stop  offset="0.2793" style="stop-color:#164483"/>
							<stop  offset="0.3715" style="stop-color:#194381"/>
							<stop  offset="0.4473" style="stop-color:#23427C"/>
							<stop  offset="0.5172" style="stop-color:#353F74"/>
							<stop  offset="0.5836" style="stop-color:#4D3A68"/>
							<stop  offset="0.6476" style="stop-color:#6C3558"/>
							<stop  offset="0.7088" style="stop-color:#922E45"/>
							<stop  offset="0.7682" style="stop-color:#BE262F"/>
							<stop  offset="1" style="stop-color:#CA1A23;stop-opacity:0"/>
						</linearGradient>
						<path style="fill:url(#SVGID_00000066477304898203589000000001238195739126571966_);" d="M29.7,45.8c-0.6-0.6-0.9-1.2-0.9-2.1
							c0-0.8,0.3-1.5,0.9-2.1c0.6-0.6,1.4-0.8,2.3-0.8c0.9,0,1.7,0.3,2.3,0.8c0.6,0.6,0.9,1.2,0.9,2.1c0,0.8-0.3,1.5-0.9,2.1
							c-0.6,0.6-1.4,0.8-2.3,0.8C31.1,46.6,30.3,46.4,29.7,45.8z M34.7,48.5V66h-5.4V48.5C29.3,48.5,34.7,48.5,34.7,48.5z"/>
					</g>
					<g>
						
							<linearGradient id="SVGID_00000037670940572575383300000015688986104755955379_" gradientUnits="userSpaceOnUse" x1="-7.214" y1="-585.4253" x2="162.9863" y2="-680.7887" gradientTransform="matrix(1 0 0 -1 0 -560.8192)">
							<stop  offset="2.510000e-02" style="stop-color:#164483;stop-opacity:0"/>
							<stop  offset="0.2793" style="stop-color:#164483"/>
							<stop  offset="0.3715" style="stop-color:#194381"/>
							<stop  offset="0.4473" style="stop-color:#23427C"/>
							<stop  offset="0.5172" style="stop-color:#353F74"/>
							<stop  offset="0.5836" style="stop-color:#4D3A68"/>
							<stop  offset="0.6476" style="stop-color:#6C3558"/>
							<stop  offset="0.7088" style="stop-color:#922E45"/>
							<stop  offset="0.7682" style="stop-color:#BE262F"/>
							<stop  offset="1" style="stop-color:#CA1A23;stop-opacity:0"/>
						</linearGradient>
						<path style="fill:url(#SVGID_00000037670940572575383300000015688986104755955379_);" d="M66.1,50.3c1.3,1.3,1.9,3.1,1.9,5.5
							V66h-5.3v-9.5c0-1.1-0.3-2-0.9-2.6c-0.6-0.6-1.4-0.9-2.5-0.9s-1.9,0.3-2.5,0.9c-0.6,0.6-0.9,1.5-0.9,2.6V66h-5.3v-9.5
							c0-1.1-0.3-2-0.9-2.6c-0.6-0.6-1.4-0.9-2.5-0.9c-1,0-1.9,0.3-2.5,0.9c-0.6,0.6-0.9,1.5-0.9,2.6V66h-5.4V48.5h5.4v2.2
							c0.5-0.7,1.3-1.3,2.1-1.7c0.9-0.4,1.9-0.6,3-0.6c1.3,0,2.5,0.3,3.5,0.8c1,0.6,1.8,1.4,2.4,2.4c0.6-1,1.4-1.7,2.5-2.4
							c1-0.6,2.2-0.9,3.4-0.9C63.1,48.3,64.8,48.9,66.1,50.3z"/>
					</g>
					<g>
						
							<linearGradient id="SVGID_00000168803824202949822060000013252125935172714936_" gradientUnits="userSpaceOnUse" x1="-2.4519" y1="-576.926" x2="167.7484" y2="-672.2895" gradientTransform="matrix(1 0 0 -1 0 -560.8192)">
							<stop  offset="2.510000e-02" style="stop-color:#164483;stop-opacity:0"/>
							<stop  offset="0.2793" style="stop-color:#164483"/>
							<stop  offset="0.3715" style="stop-color:#194381"/>
							<stop  offset="0.4473" style="stop-color:#23427C"/>
							<stop  offset="0.5172" style="stop-color:#353F74"/>
							<stop  offset="0.5836" style="stop-color:#4D3A68"/>
							<stop  offset="0.6476" style="stop-color:#6C3558"/>
							<stop  offset="0.7088" style="stop-color:#922E45"/>
							<stop  offset="0.7682" style="stop-color:#BE262F"/>
							<stop  offset="1" style="stop-color:#CA1A23;stop-opacity:0"/>
						</linearGradient>
						<path style="fill:url(#SVGID_00000168803824202949822060000013252125935172714936_);" d="M79.3,49c0.9-0.5,2-0.8,3.2-0.8
							c1.4,0,2.7,0.4,3.9,1.1s2.1,1.8,2.8,3.1c0.7,1.4,1,2.9,1,4.7c0,1.8-0.3,3.4-1,4.8c-0.7,1.4-1.6,2.4-2.8,3.2s-2.5,1.1-3.9,1.1
							c-1.2,0-2.3-0.3-3.2-0.8s-1.7-1.1-2.2-1.9v10.8h-5.4V48.5h5.4V51C77.7,50.1,78.4,49.5,79.3,49z M83.7,54
							c-0.7-0.8-1.7-1.1-2.7-1.1c-1.1,0-2,0.4-2.7,1.2c-0.7,0.8-1.1,1.8-1.1,3.2c0,1.3,0.4,2.4,1.1,3.2c0.7,0.8,1.6,1.2,2.7,1.2
							s2-0.4,2.7-1.2c0.8-0.8,1.1-1.8,1.1-3.2C84.8,55.8,84.4,54.8,83.7,54z"/>
					</g>
					<g>
						
							<linearGradient id="SVGID_00000020365127522897290730000014134725318831953289_" gradientUnits="userSpaceOnUse" x1="5.424" y1="-562.8696" x2="175.6242" y2="-658.2331" gradientTransform="matrix(1 0 0 -1 0 -560.8192)">
							<stop  offset="2.510000e-02" style="stop-color:#164483;stop-opacity:0"/>
							<stop  offset="0.2793" style="stop-color:#164483"/>
							<stop  offset="0.3715" style="stop-color:#194381"/>
							<stop  offset="0.4473" style="stop-color:#23427C"/>
							<stop  offset="0.5172" style="stop-color:#353F74"/>
							<stop  offset="0.5836" style="stop-color:#4D3A68"/>
							<stop  offset="0.6476" style="stop-color:#6C3558"/>
							<stop  offset="0.7088" style="stop-color:#922E45"/>
							<stop  offset="0.7682" style="stop-color:#BE262F"/>
							<stop  offset="1" style="stop-color:#CA1A23;stop-opacity:0"/>
						</linearGradient>
						<path style="fill:url(#SVGID_00000020365127522897290730000014134725318831953289_);" d="M110.4,48.5V66H105v-2.4
							c-0.5,0.8-1.3,1.4-2.2,1.9s-2,0.7-3.1,0.7c-1.3,0-2.5-0.3-3.5-0.9c-1-0.6-1.8-1.5-2.4-2.6c-0.6-1.1-0.8-2.5-0.8-4V48.5h5.3V58
							c0,1.2,0.3,2.1,0.9,2.7c0.6,0.6,1.4,1,2.4,1c1,0,1.9-0.3,2.5-1c0.6-0.6,0.9-1.6,0.9-2.7v-9.5L110.4,48.5L110.4,48.5z"/>
					</g>
					<g>
						
							<linearGradient id="SVGID_00000071527765305535943770000009621308717986440123_" gradientUnits="userSpaceOnUse" x1="9.7501" y1="-555.1486" x2="179.9503" y2="-650.512" gradientTransform="matrix(1 0 0 -1 0 -560.8192)">
							<stop  offset="2.510000e-02" style="stop-color:#164483;stop-opacity:0"/>
							<stop  offset="0.2793" style="stop-color:#164483"/>
							<stop  offset="0.3715" style="stop-color:#194381"/>
							<stop  offset="0.4473" style="stop-color:#23427C"/>
							<stop  offset="0.5172" style="stop-color:#353F74"/>
							<stop  offset="0.5836" style="stop-color:#4D3A68"/>
							<stop  offset="0.6476" style="stop-color:#6C3558"/>
							<stop  offset="0.7088" style="stop-color:#922E45"/>
							<stop  offset="0.7682" style="stop-color:#BE262F"/>
							<stop  offset="1" style="stop-color:#CA1A23;stop-opacity:0"/>
						</linearGradient>
						<path style="fill:url(#SVGID_00000071527765305535943770000009621308717986440123_);" d="M119.6,42.8V66h-5.4V42.8H119.6z"/>
					</g>
					<g>
						
							<linearGradient id="SVGID_00000055705135681363055370000017546693448518718871_" gradientUnits="userSpaceOnUse" x1="11.7304" y1="-551.6142" x2="181.9306" y2="-646.9776" gradientTransform="matrix(1 0 0 -1 0 -560.8192)">
							<stop  offset="2.510000e-02" style="stop-color:#164483;stop-opacity:0"/>
							<stop  offset="0.2793" style="stop-color:#164483"/>
							<stop  offset="0.3715" style="stop-color:#194381"/>
							<stop  offset="0.4473" style="stop-color:#23427C"/>
							<stop  offset="0.5172" style="stop-color:#353F74"/>
							<stop  offset="0.5836" style="stop-color:#4D3A68"/>
							<stop  offset="0.6476" style="stop-color:#6C3558"/>
							<stop  offset="0.7088" style="stop-color:#922E45"/>
							<stop  offset="0.7682" style="stop-color:#BE262F"/>
							<stop  offset="1" style="stop-color:#CA1A23;stop-opacity:0"/>
						</linearGradient>
						<path style="fill:url(#SVGID_00000055705135681363055370000017546693448518718871_);" d="M126.5,65.4
							c-1.2-0.5-2.1-1.2-2.8-2.1c-0.7-0.9-1.1-1.9-1.2-3.1h5.3c0.1,0.6,0.3,1.1,0.8,1.5c0.5,0.4,1.1,0.6,1.9,0.6
							c0.7,0,1.2-0.1,1.6-0.4c0.4-0.3,0.5-0.6,0.5-1c0-0.5-0.3-0.9-0.8-1.1c-0.5-0.2-1.4-0.5-2.5-0.8c-1.3-0.3-2.3-0.6-3.1-0.9
							c-0.8-0.3-1.6-0.8-2.2-1.5c-0.6-0.7-0.9-1.6-0.9-2.8c0-1,0.3-1.9,0.8-2.7c0.6-0.8,1.4-1.5,2.4-2c1.1-0.5,2.4-0.7,3.8-0.7
							c2.2,0,3.9,0.5,5.2,1.6c1.3,1.1,2,2.5,2.2,4.3h-5c-0.1-0.6-0.4-1.1-0.8-1.4c-0.5-0.4-1-0.5-1.8-0.5c-0.6,0-1.1,0.1-1.4,0.4
							c-0.3,0.2-0.5,0.6-0.5,1c0,0.5,0.3,0.9,0.8,1.1s1.4,0.5,2.5,0.8c1.3,0.3,2.4,0.7,3.2,1c0.8,0.3,1.5,0.8,2.1,1.6
							c0.6,0.7,0.9,1.7,1,2.9c0,1-0.3,1.9-0.9,2.7c-0.6,0.8-1.4,1.4-2.5,1.9c-1.1,0.5-2.3,0.7-3.7,0.7
							C129.1,66.2,127.7,66,126.5,65.4z"/>
					</g>
				</g>
			</g>
		</g>
	</g>
	<g>
		
			<linearGradient id="SVGID_00000036242279270083721950000007150005568046862779_" gradientUnits="userSpaceOnUse" x1="16.87" y1="-542.4413" x2="187.0702" y2="-637.8047" gradientTransform="matrix(1 0 0 -1 0 -560.8192)">
			<stop  offset="2.510000e-02" style="stop-color:#164483;stop-opacity:0"/>
			<stop  offset="0.2793" style="stop-color:#164483"/>
			<stop  offset="0.3715" style="stop-color:#194381"/>
			<stop  offset="0.4473" style="stop-color:#23427C"/>
			<stop  offset="0.5172" style="stop-color:#353F74"/>
			<stop  offset="0.5836" style="stop-color:#4D3A68"/>
			<stop  offset="0.6476" style="stop-color:#6C3558"/>
			<stop  offset="0.7088" style="stop-color:#922E45"/>
			<stop  offset="0.7682" style="stop-color:#BE262F"/>
			<stop  offset="1" style="stop-color:#CA1A23;stop-opacity:0"/>
		</linearGradient>
		<path style="fill:url(#SVGID_00000036242279270083721950000007150005568046862779_);" d="M159.8,56.2c0,5.4-4.4,9.7-9.7,9.7
			s-9.7-4.4-9.7-9.7s4.4-9.7,9.7-9.7C155.4,46.5,159.8,50.9,159.8,56.2z"/>
	</g>
	<g>
		
			<linearGradient id="SVGID_00000167389924825179017970000006649484726298360483_" gradientUnits="userSpaceOnUse" x1="146.157" y1="-612.7493" x2="146.157" y2="-612.7493" gradientTransform="matrix(1 0 0 -1 0 -560.8192)">
			<stop  offset="2.510000e-02" style="stop-color:#164483;stop-opacity:0"/>
			<stop  offset="0.2793" style="stop-color:#164483"/>
			<stop  offset="0.3715" style="stop-color:#194381"/>
			<stop  offset="0.4473" style="stop-color:#23427C"/>
			<stop  offset="0.5172" style="stop-color:#353F74"/>
			<stop  offset="0.5836" style="stop-color:#4D3A68"/>
			<stop  offset="0.6476" style="stop-color:#6C3558"/>
			<stop  offset="0.7088" style="stop-color:#922E45"/>
			<stop  offset="0.7682" style="stop-color:#BE262F"/>
			<stop  offset="1" style="stop-color:#CA1A23;stop-opacity:0"/>
		</linearGradient>
		<path style="fill:url(#SVGID_00000167389924825179017970000006649484726298360483_);" d="M146.2,51.9"/>
	</g>
	<g>
		<g>
			
				<linearGradient id="SVGID_00000011740124788336749570000017030260443525374597_" gradientUnits="userSpaceOnUse" x1="22.1245" y1="-533.0633" x2="192.3247" y2="-628.4268" gradientTransform="matrix(1 0 0 -1 0 -560.8192)">
				<stop  offset="2.510000e-02" style="stop-color:#164483;stop-opacity:0"/>
				<stop  offset="0.2793" style="stop-color:#164483"/>
				<stop  offset="0.3715" style="stop-color:#194381"/>
				<stop  offset="0.4473" style="stop-color:#23427C"/>
				<stop  offset="0.5172" style="stop-color:#353F74"/>
				<stop  offset="0.5836" style="stop-color:#4D3A68"/>
				<stop  offset="0.6476" style="stop-color:#6C3558"/>
				<stop  offset="0.7088" style="stop-color:#922E45"/>
				<stop  offset="0.7682" style="stop-color:#BE262F"/>
				<stop  offset="1" style="stop-color:#CA1A23;stop-opacity:0"/>
			</linearGradient>
			<path style="fill:url(#SVGID_00000011740124788336749570000017030260443525374597_);" d="M162.3,53.7c-0.3,0-0.5-0.2-0.6-0.5
				c0-0.3-0.8-7-8.3-8.5c-0.3-0.1-0.5-0.4-0.4-0.7c0.1-0.3,0.3-0.5,0.7-0.4c8.4,1.6,9.2,9.4,9.3,9.5
				C162.9,53.4,162.7,53.7,162.3,53.7C162.4,53.7,162.3,53.7,162.3,53.7z"/>
		</g>
		<g class="st19">
			
				<linearGradient id="SVGID_00000158730770746780541020000016059050402573000601_" gradientUnits="userSpaceOnUse" x1="23.75" y1="-530.1622" x2="193.9502" y2="-625.5256" gradientTransform="matrix(1 0 0 -1 0 -560.8192)">
				<stop  offset="2.510000e-02" style="stop-color:#164483;stop-opacity:0"/>
				<stop  offset="0.2793" style="stop-color:#164483"/>
				<stop  offset="0.3715" style="stop-color:#194381"/>
				<stop  offset="0.4473" style="stop-color:#23427C"/>
				<stop  offset="0.5172" style="stop-color:#353F74"/>
				<stop  offset="0.5836" style="stop-color:#4D3A68"/>
				<stop  offset="0.6476" style="stop-color:#6C3558"/>
				<stop  offset="0.7088" style="stop-color:#922E45"/>
				<stop  offset="0.7682" style="stop-color:#BE262F"/>
				<stop  offset="1" style="stop-color:#CA1A23;stop-opacity:0"/>
			</linearGradient>
			<path style="fill:url(#SVGID_00000158730770746780541020000016059050402573000601_);" d="M164.4,50.7c-0.3,0-0.5-0.2-0.6-0.5l0,0
				c0-0.2-0.6-5.8-6.9-7c-0.3-0.1-0.5-0.4-0.4-0.7c0.1-0.3,0.3-0.5,0.7-0.4c7.1,1.4,7.8,8,7.8,8C165,50.4,164.8,50.7,164.4,50.7
				C164.4,50.7,164.4,50.7,164.4,50.7z"/>
		</g>
		<g class="st21">
			
				<linearGradient id="SVGID_00000085973161904534293780000005553289485563497901_" gradientUnits="userSpaceOnUse" x1="25.2705" y1="-527.4486" x2="195.4707" y2="-622.812" gradientTransform="matrix(1 0 0 -1 0 -560.8192)">
				<stop  offset="2.510000e-02" style="stop-color:#164483;stop-opacity:0"/>
				<stop  offset="0.2793" style="stop-color:#164483"/>
				<stop  offset="0.3715" style="stop-color:#194381"/>
				<stop  offset="0.4473" style="stop-color:#23427C"/>
				<stop  offset="0.5172" style="stop-color:#353F74"/>
				<stop  offset="0.5836" style="stop-color:#4D3A68"/>
				<stop  offset="0.6476" style="stop-color:#6C3558"/>
				<stop  offset="0.7088" style="stop-color:#922E45"/>
				<stop  offset="0.7682" style="stop-color:#BE262F"/>
				<stop  offset="1" style="stop-color:#CA1A23;stop-opacity:0"/>
			</linearGradient>
			<path style="fill:url(#SVGID_00000085973161904534293780000005553289485563497901_);" d="M166.3,48c-0.3,0-0.5-0.2-0.6-0.5
				c0-0.2-0.6-5.2-6.2-6.3c-0.3-0.1-0.5-0.4-0.4-0.7c0.1-0.3,0.3-0.5,0.7-0.4c6.5,1.2,7.1,7.2,7.1,7.3C166.9,47.7,166.7,48,166.3,48
				C166.3,48,166.3,48,166.3,48z"/>
		</g>
	</g>
</g>
</svg>
