<?xml version="1.0" encoding="utf-8"?>
<!-- Generator: Adobe Illustrator 26.3.1, SVG Export Plug-In . SVG Version: 6.00 Build 0)  -->
<svg version="1.1" id="Capa_1" xmlns="http://www.w3.org/2000/svg" xmlns:xlink="http://www.w3.org/1999/xlink" x="0px" y="0px"
	 viewBox="0 0 187 100" style="enable-background:new 0 0 187 100;" xml:space="preserve">
<style type="text/css">
	.st0{clip-path:url(#SVGID_00000031174030205290028900000006223836157938109333_);fill:#184487;}
	.st1{clip-path:url(#SVGID_00000031174030205290028900000006223836157938109333_);}
	.st2{fill:#FFFFFF;}
	.st3{fill:#6B96CF;}
	.st4{fill:#CB1823;}
</style>
<g>
	<defs>
		<rect id="SVGID_1_" width="187" height="100"/>
	</defs>
	<clipPath id="SVGID_00000138545642991727862700000007264978105763909278_">
		<use xlink:href="#SVGID_1_"  style="overflow:visible;"/>
	</clipPath>
	
		<rect x="-9.57" y="-5.97" style="clip-path:url(#SVGID_00000138545642991727862700000007264978105763909278_);fill:#184487;" width="206.15" height="124.29"/>
	<g style="clip-path:url(#SVGID_00000138545642991727862700000007264978105763909278_);">
		<g>
			<g>
				<path class="st2" d="M19.3,53.38h2.64c1.48,0,2.7,0.47,2.7,2.16c0,1.67-1.14,2.18-2.63,2.18h-1.15v2.77H19.3V53.38z M20.86,56.4
					h1.04c0.55,0,1.11-0.19,1.11-0.85c0-0.73-0.74-0.83-1.35-0.83h-0.8C20.86,54.72,20.86,56.4,20.86,56.4z"/>
				<path class="st2" d="M26.61,53.38h2.75c1.46,0,2.68,0.5,2.68,2.16c0,0.99-0.53,1.77-1.54,1.95l1.81,3h-1.88l-1.49-2.84h-0.77
					v2.84H26.6L26.61,53.38L26.61,53.38z M28.18,56.33h0.92c0.57,0,1.32-0.02,1.32-0.79c0-0.71-0.64-0.82-1.22-0.82h-1.02V56.33z"/>
				<path class="st2" d="M37.57,53.2c2.22,0,3.84,1.46,3.84,3.74c0,2.28-1.62,3.74-3.84,3.74s-3.84-1.46-3.84-3.74
					S35.35,53.2,37.57,53.2z M37.57,59.23c1.34,0,2.21-0.96,2.21-2.29s-0.87-2.29-2.21-2.29s-2.21,0.96-2.21,2.29
					S36.23,59.23,37.57,59.23z"/>
				<path class="st2" d="M48.11,55.23c-0.31-0.37-0.76-0.58-1.35-0.58c-1.19,0-2.06,0.96-2.06,2.29s0.87,2.29,2.01,2.29
					c0.63,0,1.15-0.28,1.47-0.76l1.31,0.97c-0.59,0.84-1.6,1.24-2.57,1.24c-2.22,0-3.84-1.46-3.84-3.74c0-2.28,1.62-3.74,3.84-3.74
					c0.79,0,1.8,0.27,2.4,1.04L48.11,55.23z"/>
				<path class="st2" d="M51.38,53.38h4.83v1.45h-3.27v1.33h3.08v1.45h-3.08v1.45h3.45v1.45h-5.01
					C51.38,60.51,51.38,53.38,51.38,53.38z"/>
				<path class="st2" d="M62.16,55.12c-0.25-0.32-0.75-0.47-1.14-0.47c-0.44,0-1.05,0.2-1.05,0.73c0,1.3,3.28,0.46,3.28,2.95
					c0,1.59-1.28,2.34-2.74,2.34c-0.91,0-1.72-0.27-2.39-0.89l1.12-1.23c0.32,0.42,0.84,0.67,1.37,0.67c0.51,0,1.09-0.24,1.09-0.74
					c0-1.31-3.34-0.6-3.34-2.97c0-1.52,1.32-2.31,2.71-2.31c0.8,0,1.58,0.21,2.18,0.74L62.16,55.12z"/>
				<path class="st2" d="M68.85,53.2c2.22,0,3.84,1.46,3.84,3.74c0,2.28-1.62,3.74-3.84,3.74s-3.84-1.46-3.84-3.74
					S66.63,53.2,68.85,53.2z M68.85,59.23c1.34,0,2.21-0.96,2.21-2.29s-0.87-2.29-2.21-2.29s-2.21,0.96-2.21,2.29
					S67.51,59.23,68.85,59.23z"/>
				<path class="st2" d="M19.3,67.05h2.35c2.29,0,4.21,0.97,4.21,3.58c0,2.3-1.88,3.54-4,3.54H19.3V67.05z M20.86,72.72h0.81
					c1.46,0,2.55-0.55,2.55-2.17c0-1.4-1.12-2.05-2.44-2.05h-0.92C20.86,68.5,20.86,72.72,20.86,72.72z"/>
				<path class="st2" d="M27.97,67.05h4.83v1.45h-3.27v1.33h3.08v1.45h-3.08v1.45h3.45v1.45h-5.01V67.05z"/>
				<path class="st2" d="M39.24,67.05h4.83v1.45H40.8v1.33h3.08v1.45H40.8v1.45h3.45v1.45h-5.01
					C39.24,74.18,39.24,67.05,39.24,67.05z"/>
				<path class="st2" d="M50.02,68.79c-0.25-0.32-0.75-0.47-1.14-0.47c-0.44,0-1.05,0.2-1.05,0.73c0,1.3,3.28,0.46,3.28,2.95
					c0,1.59-1.28,2.34-2.74,2.34c-0.91,0-1.72-0.27-2.39-0.89l1.12-1.23c0.32,0.42,0.84,0.67,1.37,0.67c0.51,0,1.09-0.24,1.09-0.74
					c0-1.31-3.34-0.6-3.34-2.97c0-1.52,1.32-2.31,2.71-2.31c0.8,0,1.58,0.21,2.18,0.74L50.02,68.79z"/>
				<path class="st2" d="M54.63,68.44H52.6v-1.39h5.63v1.39H56.2v5.73h-1.57V68.44z"/>
				<path class="st2" d="M61.42,67.05h1.3l3.09,7.11h-1.77l-0.61-1.51h-2.76l-0.59,1.51h-1.73L61.42,67.05z M62.03,69.12l-0.86,2.21
					h1.74L62.03,69.12z"/>
				<path class="st2" d="M67.51,67.05h2.65c1.25,0,2.6,0.26,2.6,1.81c0,0.79-0.49,1.34-1.23,1.57v0.02
					c0.93,0.12,1.56,0.81,1.56,1.74c0,1.49-1.41,1.98-2.67,1.98h-2.91C67.51,74.17,67.51,67.05,67.51,67.05z M69.08,69.89h1.14
					c0.48,0,0.98-0.2,0.98-0.77c0-0.59-0.56-0.74-1.06-0.74h-1.06C69.08,68.38,69.08,69.89,69.08,69.89z M69.08,72.84h1.41
					c0.49,0,1.04-0.21,1.04-0.83c0-0.67-0.75-0.78-1.27-0.78h-1.19L69.08,72.84L69.08,72.84z"/>
				<path class="st2" d="M74.99,67.05h1.57v7.11h-1.57V67.05z"/>
				<path class="st2" d="M79.03,67.05h1.57v5.67h2.9v1.45h-4.47V67.05z"/>
				<path class="st2" d="M85.33,67.05h1.57v7.11h-1.57V67.05z"/>
				<path class="st2" d="M88.94,72.72l3.61-4.28h-3.48v-1.39h5.38v1.39l-3.54,4.28h3.66v1.45h-5.63V72.72z"/>
				<path class="st2" d="M98.97,67.05h1.3l3.09,7.11h-1.77l-0.61-1.51h-2.76l-0.59,1.51H95.9L98.97,67.05z M99.57,69.12l-0.86,2.21
					h1.74L99.57,69.12z"/>
				<path class="st2" d="M109.71,68.9c-0.31-0.37-0.76-0.58-1.35-0.58c-1.19,0-2.06,0.96-2.06,2.29s0.87,2.29,2.01,2.29
					c0.63,0,1.15-0.28,1.47-0.76l1.31,0.97c-0.59,0.84-1.6,1.24-2.57,1.24c-2.22,0-3.84-1.46-3.84-3.74s1.62-3.74,3.84-3.74
					c0.79,0,1.8,0.27,2.4,1.04L109.71,68.9z"/>
				<path class="st2" d="M112.9,67.05h1.57v7.11h-1.57V67.05z"/>
				<path class="st2" d="M120.34,66.87c2.22,0,3.84,1.46,3.84,3.74s-1.62,3.74-3.84,3.74s-3.84-1.46-3.84-3.74
					S118.12,66.87,120.34,66.87z M120.34,72.9c1.34,0,2.21-0.96,2.21-2.29s-0.87-2.29-2.21-2.29s-2.21,0.96-2.21,2.29
					C118.13,71.93,119,72.9,120.34,72.9z M120.35,65.09h2.05l-1.74,1.45h-1.33L120.35,65.09z"/>
				<path class="st2" d="M126.23,67.05h2.13l3.02,4.94h0.02v-4.94h1.57v7.11h-2.05l-3.1-5.06h-0.02v5.06h-1.57L126.23,67.05
					L126.23,67.05z"/>
				<path class="st2" d="M19.3,80.72h2.35c2.29,0,4.21,0.97,4.21,3.58c0,2.3-1.88,3.54-4,3.54H19.3V80.72z M20.86,86.38h0.81
					c1.46,0,2.55-0.55,2.55-2.17c0-1.4-1.12-2.05-2.44-2.05h-0.92C20.86,82.16,20.86,86.38,20.86,86.38z"/>
				<path class="st2" d="M27.97,80.72h4.83v1.45h-3.27v1.33h3.08v1.45h-3.08v1.45h3.45v1.45h-5.01V80.72z"/>
				<path class="st2" d="M45.18,80.72h4.83v1.45h-3.27v1.33h3.08v1.45h-3.08v1.45h3.45v1.45h-5.01V80.72z"/>
				<path class="st2" d="M52.44,80.72h2.37l1.64,4.64h0.02l1.65-4.64h2.36v7.11h-1.57v-5.46h-0.02l-1.87,5.46h-1.2l-1.8-5.46H54
					v5.46h-1.57L52.44,80.72L52.44,80.72z"/>
				<path class="st2" d="M62.91,80.72h2.64c1.48,0,2.7,0.47,2.7,2.16c0,1.67-1.14,2.18-2.63,2.18h-1.15v2.77H62.9L62.91,80.72
					L62.91,80.72z M64.48,83.73h1.04c0.55,0,1.11-0.19,1.11-0.85c0-0.73-0.74-0.83-1.35-0.83h-0.8V83.73z"/>
				<path class="st2" d="M70.29,80.72h1.57v5.67h2.9v1.45h-4.47V80.72z"/>
				<path class="st2" d="M35.33,80.72h1.57v5.67h2.9v1.45h-4.47V80.72z"/>
				<path class="st2" d="M76.67,80.72h4.83v1.45h-3.27v1.33h3.08v1.45h-3.08v1.45h3.45v1.45h-5.01V80.72z"/>
				<path class="st2" d="M87.38,80.54c2.22,0,3.84,1.46,3.84,3.74s-1.62,3.74-3.84,3.74s-3.84-1.46-3.84-3.74
					C83.54,81.99,85.16,80.54,87.38,80.54z M87.38,86.56c1.34,0,2.21-0.96,2.21-2.29s-0.87-2.29-2.21-2.29s-2.21,0.96-2.21,2.29
					S86.04,86.56,87.38,86.56z"/>
			</g>
			<g id="XMLID_00000155832658090059591860000011647699662064123265_">
				<g>
					<path class="st2" d="M36.64,41.96H19.3V17.69h16.75v5.58H25.27v3.57h10.18v5.58H25.27v3.97h11.37V41.96z M20.1,41.16h15.74
						v-3.97H24.47v-5.58h10.18v-3.97H24.47v-5.18h10.77v-3.97H20.1V41.16z"/>
				</g>
				<g>
					<path class="st2" d="M56.76,41.96H39.42V17.69h16.75v5.58H45.39v3.57h10.18v5.58H45.39v3.97h11.37V41.96z M40.22,41.16h15.74
						v-3.97H44.59v-5.58h10.18v-3.97H44.59v-5.18h10.77v-3.97H40.22V41.16z"/>
				</g>
				<g>
					<path class="st2" d="M71.94,41.96h-5.98v-18.9h-6.7v-5.38h19.37v5.38h-6.7v18.9H71.94z M66.77,41.16h4.37v-18.9h6.7v-3.77
						H60.08v3.77h6.7v18.9H66.77z"/>
				</g>
			</g>
			<g>
				<rect x="18.71" y="47.68" class="st2" width="59.13" height="0.8"/>
			</g>
		</g>
	</g>
	<g style="clip-path:url(#SVGID_00000138545642991727862700000007264978105763909278_);">
		<circle class="st3" cx="153.91" cy="11.05" r="18.77"/>
		<circle class="st4" cx="174.56" cy="48.6" r="18.77"/>
	</g>
</g>
</svg>
