<?xml version="1.0" encoding="utf-8"?>
<!-- Generator: Adobe Illustrator 27.5.0, SVG Export Plug-In . SVG Version: 6.00 Build 0)  -->
<svg version="1.1" id="Capa_1" xmlns="http://www.w3.org/2000/svg" xmlns:xlink="http://www.w3.org/1999/xlink" x="0px" y="0px"
	 viewBox="0 0 187 100" style="enable-background:new 0 0 187 100;" xml:space="preserve">
<style type="text/css">
	.st0{fill:#CB1823;}
	.st1{opacity:0.65;}
	.st2{fill:#FFFFFF;}
	.st3{fill:#6B95CE;}
</style>
<rect x="0" class="st0" width="187" height="100"/>
<g class="st1">
	<g>
		<path class="st2" d="M105.5,33.1c-5.4,0-10.6-2.8-13.3-7.9c-2-3.6-2.4-7.7-1.3-11.5s3.7-7.1,7.3-9.1c3.6-2,7.7-2.4,11.5-1.3
			c3.9,1.1,7.1,3.7,9.1,7.3c2,3.6,2.4,7.7,1.3,11.5c-1.1,3.9-3.7,7.1-7.3,9.1C110.4,32.5,107.9,33.1,105.5,33.1z M105.4,4.5
			c-2.2,0-4.4,0.5-6.5,1.7c-6.5,3.6-8.9,11.8-5.3,18.3c1.7,3.2,4.6,5.5,8.1,6.5c3.5,1,7.1,0.6,10.3-1.1c3.2-1.7,5.5-4.6,6.5-8.1
			s0.6-7.1-1.1-10.3C114.8,7,110.2,4.5,105.4,4.5z"/>
	</g>
</g>
<circle class="st3" cx="121.2" cy="46.7" r="14.3"/>
<g>
	<rect x="16.8" y="48.9" class="st2" width="58.5" height="0.8"/>
</g>
<g>
	<path class="st2" d="M36.5,17v3.9h-6.3v20h-4.8v-20H19V17H36.5z"/>
	<path class="st2" d="M52.2,40.8L47,31.5h-2.3v9.3H40V17h8.9c1.8,0,3.4,0.3,4.7,1c1.3,0.6,2.3,1.5,2.9,2.6c0.6,1.1,1,2.3,1,3.7
		c0,1.6-0.5,3-1.4,4.2c-0.9,1.3-2.3,2.1-4.1,2.6l5.7,9.7H52.2z M44.7,27.9h4c1.3,0,2.3-0.3,2.9-0.9c0.6-0.6,1-1.5,1-2.6
		c0-1.1-0.3-1.9-1-2.5c-0.6-0.6-1.6-0.9-2.9-0.9h-4V27.9z"/>
	<path class="st2" d="M66.6,20.8v6h8v3.8h-8v6.3h9v3.9H61.8V16.9h13.8v3.9H66.6z"/>
</g>
<g>
	<path class="st2" d="M24.4,55v1.2h-2v6.1H21v-6.1h-2V55H24.4z"/>
	<path class="st2" d="M30.8,61h-2.9l-0.5,1.4h-1.5l2.6-7.3h1.7l2.6,7.3h-1.6L30.8,61z M30.4,59.8l-1.1-3.1l-1.1,3.1H30.4z"/>
	<path class="st2" d="M35.9,62.2c-0.4-0.2-0.7-0.4-1-0.8c-0.2-0.3-0.4-0.7-0.4-1.2h1.6c0,0.3,0.1,0.5,0.3,0.7
		c0.2,0.2,0.5,0.3,0.8,0.3c0.3,0,0.6-0.1,0.8-0.2c0.2-0.2,0.3-0.4,0.3-0.6c0-0.2-0.1-0.4-0.2-0.5c-0.1-0.1-0.3-0.2-0.5-0.3
		c-0.2-0.1-0.5-0.2-0.8-0.3c-0.5-0.1-0.9-0.3-1.2-0.4c-0.3-0.1-0.6-0.3-0.8-0.6c-0.2-0.3-0.3-0.6-0.3-1.1c0-0.4,0.1-0.8,0.3-1.1
		c0.2-0.3,0.5-0.6,0.9-0.7c0.4-0.2,0.8-0.3,1.3-0.3c0.8,0,1.4,0.2,1.8,0.6c0.5,0.4,0.7,0.9,0.8,1.5h-1.6c0-0.3-0.1-0.5-0.3-0.6
		c-0.2-0.2-0.5-0.2-0.8-0.2c-0.3,0-0.5,0.1-0.7,0.2c-0.2,0.1-0.3,0.4-0.3,0.6c0,0.2,0.1,0.4,0.2,0.5c0.1,0.1,0.3,0.2,0.5,0.3
		c0.2,0.1,0.5,0.2,0.8,0.3c0.5,0.1,0.9,0.3,1.2,0.4c0.3,0.1,0.6,0.3,0.8,0.6c0.2,0.3,0.3,0.6,0.3,1.1c0,0.4-0.1,0.8-0.3,1.1
		c-0.2,0.3-0.5,0.6-0.9,0.8c-0.4,0.2-0.9,0.3-1.4,0.3C36.8,62.4,36.3,62.3,35.9,62.2z"/>
	<path class="st2" d="M46.5,61h-2.9l-0.5,1.4h-1.5l2.6-7.3h1.7l2.6,7.3H47L46.5,61z M46.1,59.8l-1.1-3.1L44,59.8H46.1z"/>
	<path class="st2" d="M58.5,55.5c0.6,0.3,1,0.7,1.4,1.3c0.3,0.6,0.5,1.2,0.5,1.9s-0.2,1.4-0.5,1.9c-0.3,0.5-0.8,1-1.4,1.3
		c-0.6,0.3-1.3,0.5-2,0.5h-2.6V55h2.6C57.2,55,57.9,55.2,58.5,55.5z M58.2,60.5c0.4-0.4,0.6-1,0.6-1.8c0-0.8-0.2-1.4-0.6-1.8
		c-0.4-0.4-1-0.6-1.8-0.6h-1v4.8h1C57.1,61.1,57.7,60.9,58.2,60.5z"/>
	<path class="st2" d="M63.8,56.2V58h2.5v1.2h-2.5v1.9h2.8v1.2h-4.2V55h4.2v1.2H63.8z"/>
	<path class="st2" d="M23.2,76.2l-1.6-2.9h-0.7v2.9h-1.5v-7.3h2.7c0.6,0,1,0.1,1.4,0.3c0.4,0.2,0.7,0.5,0.9,0.8
		c0.2,0.3,0.3,0.7,0.3,1.1c0,0.5-0.1,0.9-0.4,1.3c-0.3,0.4-0.7,0.7-1.2,0.8l1.8,3H23.2z M20.9,72.3h1.2c0.4,0,0.7-0.1,0.9-0.3
		c0.2-0.2,0.3-0.5,0.3-0.8c0-0.3-0.1-0.6-0.3-0.8c-0.2-0.2-0.5-0.3-0.9-0.3h-1.2V72.3z"/>
	<path class="st2" d="M28.5,70.1v1.8H31v1.2h-2.5V75h2.8v1.2H27v-7.3h4.2v1.2H28.5z"/>
	<path class="st2" d="M38.6,72.3c-0.2,0.3-0.5,0.6-0.9,0.8c-0.4,0.2-0.9,0.3-1.5,0.3H35v2.8h-1.5v-7.3h2.7c0.6,0,1,0.1,1.4,0.3
		s0.7,0.5,0.9,0.8c0.2,0.3,0.3,0.7,0.3,1.2C38.8,71.5,38.8,71.9,38.6,72.3z M37,71.9c0.2-0.2,0.3-0.4,0.3-0.8c0-0.7-0.4-1.1-1.2-1.1
		H35v2.1h1.2C36.5,72.2,36.8,72.1,37,71.9z"/>
	<path class="st2" d="M42.3,75.8c-0.6-0.3-1-0.8-1.4-1.3s-0.5-1.2-0.5-1.9c0-0.7,0.2-1.4,0.5-1.9c0.3-0.6,0.8-1,1.4-1.3
		c0.6-0.3,1.2-0.5,1.9-0.5c0.7,0,1.3,0.2,1.9,0.5c0.6,0.3,1,0.8,1.4,1.3c0.3,0.6,0.5,1.2,0.5,1.9c0,0.7-0.2,1.4-0.5,1.9
		c-0.3,0.6-0.8,1-1.4,1.3c-0.6,0.3-1.2,0.5-1.9,0.5C43.5,76.3,42.9,76.1,42.3,75.8z M45.3,74.7c0.3-0.2,0.6-0.5,0.8-0.9
		c0.2-0.4,0.3-0.8,0.3-1.3s-0.1-0.9-0.3-1.3c-0.2-0.4-0.5-0.6-0.8-0.8c-0.3-0.2-0.7-0.3-1.2-0.3c-0.4,0-0.8,0.1-1.2,0.3
		c-0.3,0.2-0.6,0.5-0.8,0.8c-0.2,0.4-0.3,0.8-0.3,1.3s0.1,0.9,0.3,1.3c0.2,0.4,0.5,0.7,0.8,0.9c0.3,0.2,0.7,0.3,1.2,0.3
		C44.6,75,45,74.9,45.3,74.7z"/>
	<path class="st2" d="M51.1,76c-0.4-0.2-0.7-0.4-1-0.8c-0.2-0.3-0.4-0.7-0.4-1.2h1.6c0,0.3,0.1,0.5,0.3,0.7c0.2,0.2,0.5,0.3,0.8,0.3
		c0.3,0,0.6-0.1,0.8-0.2c0.2-0.2,0.3-0.4,0.3-0.6c0-0.2-0.1-0.4-0.2-0.5c-0.1-0.1-0.3-0.2-0.5-0.3c-0.2-0.1-0.5-0.2-0.8-0.3
		c-0.5-0.1-0.9-0.3-1.2-0.4c-0.3-0.1-0.6-0.3-0.8-0.6c-0.2-0.3-0.3-0.6-0.3-1.1c0-0.4,0.1-0.8,0.3-1.1c0.2-0.3,0.5-0.6,0.9-0.7
		c0.4-0.2,0.8-0.3,1.3-0.3c0.8,0,1.4,0.2,1.8,0.6c0.5,0.4,0.7,0.9,0.8,1.5h-1.6c0-0.3-0.1-0.5-0.3-0.6c-0.2-0.2-0.5-0.2-0.8-0.2
		c-0.3,0-0.5,0.1-0.7,0.2c-0.2,0.1-0.3,0.4-0.3,0.6c0,0.2,0.1,0.4,0.2,0.5c0.1,0.1,0.3,0.2,0.5,0.3c0.2,0.1,0.5,0.2,0.8,0.3
		c0.5,0.1,0.9,0.3,1.2,0.4c0.3,0.1,0.6,0.3,0.8,0.6c0.2,0.3,0.3,0.6,0.3,1.1c0,0.4-0.1,0.8-0.3,1.1c-0.2,0.3-0.5,0.6-0.9,0.8
		c-0.4,0.2-0.9,0.3-1.4,0.3C51.9,76.3,51.5,76.2,51.1,76z"/>
	<path class="st2" d="M58.7,68.9v7.3h-1.5v-7.3H58.7z"/>
	<path class="st2" d="M61.2,70.6c0.3-0.6,0.8-1,1.3-1.3c0.6-0.3,1.2-0.5,1.9-0.5c0.8,0,1.5,0.2,2.2,0.6c0.6,0.4,1,1,1.3,1.7h-1.7
		c-0.2-0.3-0.4-0.6-0.7-0.8c-0.3-0.2-0.7-0.3-1.1-0.3c-0.4,0-0.8,0.1-1.1,0.3c-0.3,0.2-0.6,0.5-0.8,0.8s-0.3,0.8-0.3,1.3
		c0,0.5,0.1,0.9,0.3,1.3c0.2,0.4,0.4,0.7,0.8,0.8c0.3,0.2,0.7,0.3,1.1,0.3c0.4,0,0.8-0.1,1.1-0.3c0.3-0.2,0.5-0.4,0.7-0.8h1.7
		c-0.2,0.7-0.7,1.3-1.3,1.7c-0.6,0.4-1.3,0.6-2.2,0.6c-0.7,0-1.3-0.2-1.9-0.5c-0.6-0.3-1-0.8-1.3-1.3c-0.3-0.6-0.5-1.2-0.5-1.9
		C60.7,71.8,60.8,71.2,61.2,70.6z"/>
	<path class="st2" d="M71.5,68.9v7.3H70v-7.3H71.5z"/>
	<path class="st2" d="M75.3,75.8c-0.6-0.3-1-0.8-1.4-1.3s-0.5-1.2-0.5-1.9c0-0.7,0.2-1.4,0.5-1.9c0.3-0.6,0.8-1,1.4-1.3
		c0.6-0.3,1.2-0.5,1.9-0.5c0.7,0,1.3,0.2,1.9,0.5c0.6,0.3,1,0.8,1.4,1.3c0.3,0.6,0.5,1.2,0.5,1.9c0,0.7-0.2,1.4-0.5,1.9
		c-0.3,0.6-0.8,1-1.4,1.3c-0.6,0.3-1.2,0.5-1.9,0.5C76.5,76.3,75.9,76.1,75.3,75.8z M78.4,74.7c0.3-0.2,0.6-0.5,0.8-0.9
		c0.2-0.4,0.3-0.8,0.3-1.3s-0.1-0.9-0.3-1.3c-0.2-0.4-0.5-0.6-0.8-0.8c-0.3-0.2-0.7-0.3-1.2-0.3c-0.4,0-0.8,0.1-1.2,0.3
		c-0.3,0.2-0.6,0.5-0.8,0.8C75.1,71.6,75,72,75,72.5s0.1,0.9,0.3,1.3c0.2,0.4,0.5,0.7,0.8,0.9c0.3,0.2,0.7,0.3,1.2,0.3
		C77.6,75,78,74.9,78.4,74.7z M78.3,67.4l-2.4,1.1v-1l2.4-1.2V67.4z"/>
	<path class="st2" d="M89.2,76.2h-1.5l-3.3-5v5h-1.5v-7.3h1.5l3.3,5v-5h1.5V76.2z"/>
	<path class="st2" d="M20.9,83.9v1.8h2.5v1.2h-2.5v1.9h2.8v1.2h-4.2v-7.3h4.2v1.2H20.9z"/>
	<path class="st2" d="M27,89.9c-0.4-0.2-0.7-0.4-1-0.8c-0.2-0.3-0.4-0.7-0.4-1.2h1.6c0,0.3,0.1,0.5,0.3,0.7c0.2,0.2,0.5,0.3,0.8,0.3
		c0.3,0,0.6-0.1,0.8-0.2c0.2-0.2,0.3-0.4,0.3-0.6c0-0.2-0.1-0.4-0.2-0.5c-0.1-0.1-0.3-0.2-0.5-0.3c-0.2-0.1-0.5-0.2-0.8-0.3
		c-0.5-0.1-0.9-0.3-1.2-0.4c-0.3-0.1-0.6-0.3-0.8-0.6s-0.3-0.6-0.3-1.1c0-0.4,0.1-0.8,0.3-1.1c0.2-0.3,0.5-0.6,0.9-0.7
		c0.4-0.2,0.8-0.3,1.3-0.3c0.8,0,1.4,0.2,1.8,0.6c0.5,0.4,0.7,0.9,0.8,1.5h-1.6c0-0.3-0.1-0.5-0.3-0.6c-0.2-0.2-0.5-0.2-0.8-0.2
		c-0.3,0-0.5,0.1-0.7,0.2c-0.2,0.1-0.3,0.4-0.3,0.6c0,0.2,0.1,0.4,0.2,0.5c0.1,0.1,0.3,0.2,0.5,0.3c0.2,0.1,0.5,0.2,0.8,0.3
		c0.5,0.1,0.9,0.3,1.2,0.4c0.3,0.1,0.6,0.3,0.8,0.6c0.2,0.3,0.3,0.6,0.3,1.1c0,0.4-0.1,0.8-0.3,1.1c-0.2,0.3-0.5,0.6-0.9,0.8
		c-0.4,0.2-0.9,0.3-1.4,0.3C27.9,90.1,27.4,90.1,27,89.9z"/>
	<path class="st2" d="M38.2,86.1c-0.2,0.3-0.5,0.6-0.9,0.8c-0.4,0.2-0.9,0.3-1.5,0.3h-1.2v2.8h-1.5v-7.3h2.7c0.6,0,1,0.1,1.4,0.3
		c0.4,0.2,0.7,0.5,0.9,0.8c0.2,0.3,0.3,0.7,0.3,1.2C38.5,85.4,38.4,85.8,38.2,86.1z M36.7,85.8c0.2-0.2,0.3-0.4,0.3-0.8
		c0-0.7-0.4-1.1-1.2-1.1h-1.2v2.1h1.2C36.2,86.1,36.5,86,36.7,85.8z"/>
	<path class="st2" d="M41.9,83.9v1.8h2.5v1.2h-2.5v1.9h2.8v1.2h-4.2v-7.3h4.2v1.2H41.9z"/>
	<path class="st2" d="M47.1,84.5c0.3-0.6,0.8-1,1.3-1.3c0.6-0.3,1.2-0.5,1.9-0.5c0.8,0,1.5,0.2,2.2,0.6c0.6,0.4,1,1,1.3,1.7H52
		c-0.2-0.3-0.4-0.6-0.7-0.8C51,84.1,50.7,84,50.3,84c-0.4,0-0.8,0.1-1.1,0.3c-0.3,0.2-0.6,0.5-0.8,0.8c-0.2,0.4-0.3,0.8-0.3,1.3
		c0,0.5,0.1,0.9,0.3,1.3c0.2,0.4,0.4,0.7,0.8,0.8c0.3,0.2,0.7,0.3,1.1,0.3c0.4,0,0.8-0.1,1.1-0.3c0.3-0.2,0.5-0.4,0.7-0.8h1.7
		c-0.2,0.7-0.7,1.3-1.3,1.7c-0.6,0.4-1.3,0.6-2.2,0.6c-0.7,0-1.3-0.2-1.9-0.5c-0.6-0.3-1-0.8-1.3-1.3c-0.3-0.6-0.5-1.2-0.5-1.9
		C46.6,85.7,46.7,85,47.1,84.5z"/>
	<path class="st2" d="M57.8,81.2l-2.4,1.1v-1l2.4-1.2V81.2z M57.4,82.7v7.3h-1.5v-7.3H57.4z"/>
	<path class="st2" d="M64.2,82.7v1.2h-3.1v1.9h2.3V87h-2.3v3.1h-1.5v-7.3H64.2z"/>
	<path class="st2" d="M67.6,82.7v7.3h-1.5v-7.3H67.6z"/>
	<path class="st2" d="M70.1,84.5c0.3-0.6,0.8-1,1.3-1.3c0.6-0.3,1.2-0.5,1.9-0.5c0.8,0,1.5,0.2,2.2,0.6c0.6,0.4,1,1,1.3,1.7h-1.7
		c-0.2-0.3-0.4-0.6-0.7-0.8c-0.3-0.2-0.7-0.3-1.1-0.3c-0.4,0-0.8,0.1-1.1,0.3c-0.3,0.2-0.6,0.5-0.8,0.8c-0.2,0.4-0.3,0.8-0.3,1.3
		c0,0.5,0.1,0.9,0.3,1.3c0.2,0.4,0.4,0.7,0.8,0.8c0.3,0.2,0.7,0.3,1.1,0.3c0.4,0,0.8-0.1,1.1-0.3c0.3-0.2,0.5-0.4,0.7-0.8h1.7
		c-0.2,0.7-0.7,1.3-1.3,1.7c-0.6,0.4-1.3,0.6-2.2,0.6c-0.7,0-1.3-0.2-1.9-0.5c-0.6-0.3-1-0.8-1.3-1.3c-0.3-0.6-0.5-1.2-0.5-1.9
		C69.6,85.7,69.8,85,70.1,84.5z"/>
	<path class="st2" d="M83.4,88.7h-2.9L80,90.1h-1.5l2.6-7.3h1.7l2.6,7.3h-1.6L83.4,88.7z M83,87.5L82,84.4l-1.1,3.1H83z"/>
</g>
</svg>
