<?xml version="1.0" encoding="utf-8"?>
<!-- Generator: Adobe Illustrator 27.5.0, SVG Export Plug-In . SVG Version: 6.00 Build 0)  -->
<svg version="1.1" id="Capa_1" xmlns="http://www.w3.org/2000/svg" xmlns:xlink="http://www.w3.org/1999/xlink" x="0px" y="0px"
	 viewBox="0 0 187 100" style="enable-background:new 0 0 187 100;" xml:space="preserve">
<style type="text/css">
	.st0{fill:#6B95CE;}
	.st1{fill:#FFFFFF;}
	.st2{fill:none;stroke:#FFFFFF;stroke-miterlimit:10;}
	.st3{fill:#CC1823;}
	.st4{fill:#184487;}
</style>
<rect y="0.5" class="st0" width="187" height="100"/>
<g>
	<g>
		<path class="st1" d="M29.1,56.2v1.2h-1.9v6h-1.4v-6h-1.9v-1.2H29.1z"/>
		<path class="st1" d="M35.4,62h-2.9l-0.5,1.4h-1.5l2.6-7.2h1.7l2.6,7.2h-1.5L35.4,62z M35,60.9l-1-3l-1,3H35z"/>
		<path class="st1" d="M40.4,63.2c-0.4-0.2-0.7-0.4-0.9-0.7c-0.2-0.3-0.4-0.7-0.4-1.1h1.5c0,0.3,0.1,0.5,0.3,0.7
			c0.2,0.2,0.4,0.3,0.8,0.3c0.3,0,0.6-0.1,0.8-0.2c0.2-0.2,0.3-0.4,0.3-0.6c0-0.2-0.1-0.4-0.2-0.5c-0.1-0.1-0.3-0.2-0.5-0.3
			s-0.5-0.2-0.8-0.3c-0.5-0.1-0.8-0.3-1.1-0.4c-0.3-0.1-0.5-0.3-0.7-0.6s-0.3-0.6-0.3-1.1c0-0.4,0.1-0.8,0.3-1.1
			c0.2-0.3,0.5-0.6,0.9-0.7c0.4-0.2,0.8-0.3,1.3-0.3c0.7,0,1.3,0.2,1.8,0.5c0.5,0.4,0.7,0.9,0.8,1.5h-1.6c0-0.2-0.1-0.4-0.3-0.6
			c-0.2-0.2-0.5-0.2-0.8-0.2c-0.3,0-0.5,0.1-0.7,0.2c-0.2,0.1-0.3,0.4-0.3,0.6c0,0.2,0.1,0.4,0.2,0.5c0.1,0.1,0.3,0.2,0.5,0.3
			c0.2,0.1,0.5,0.2,0.8,0.3c0.5,0.1,0.8,0.3,1.1,0.4c0.3,0.1,0.5,0.3,0.8,0.6c0.2,0.3,0.3,0.6,0.3,1.1c0,0.4-0.1,0.7-0.3,1.1
			c-0.2,0.3-0.5,0.6-0.9,0.8c-0.4,0.2-0.8,0.3-1.4,0.3C41.2,63.4,40.8,63.4,40.4,63.2z"/>
		<path class="st1" d="M50.8,62h-2.9l-0.5,1.4h-1.5l2.6-7.2h1.7l2.6,7.2h-1.5L50.8,62z M50.4,60.9l-1-3l-1,3H50.4z"/>
		<path class="st1" d="M62.4,56.7c0.6,0.3,1,0.7,1.3,1.3c0.3,0.5,0.5,1.2,0.5,1.9c0,0.7-0.2,1.3-0.5,1.9c-0.3,0.5-0.8,1-1.3,1.2
			s-1.2,0.4-2,0.4h-2.5v-7.2h2.5C61.2,56.2,61.9,56.4,62.4,56.7z M62.1,61.5c0.4-0.4,0.6-1,0.6-1.7c0-0.7-0.2-1.3-0.6-1.7
			c-0.4-0.4-1-0.6-1.7-0.6h-1v4.7h1C61.1,62.2,61.7,61.9,62.1,61.5z"/>
		<path class="st1" d="M67.6,57.4v1.8H70v1.1h-2.4v1.9h2.7v1.2h-4.2v-7.2h4.2v1.2H67.6z"/>
		<path class="st1" d="M27.9,76.9l-1.6-2.8h-0.7v2.8h-1.4v-7.2h2.7c0.6,0,1,0.1,1.4,0.3c0.4,0.2,0.7,0.5,0.9,0.8
			c0.2,0.3,0.3,0.7,0.3,1.1c0,0.5-0.1,0.9-0.4,1.3c-0.3,0.4-0.7,0.6-1.2,0.8l1.7,2.9H27.9z M25.7,73.1h1.2c0.4,0,0.7-0.1,0.9-0.3
			c0.2-0.2,0.3-0.4,0.3-0.8c0-0.3-0.1-0.6-0.3-0.8C27.5,71,27.3,71,26.9,71h-1.2V73.1z"/>
		<path class="st1" d="M33.1,70.9v1.8h2.4v1.1h-2.4v1.9h2.7v1.2h-4.2v-7.2h4.2v1.2H33.1z"/>
		<path class="st1" d="M43,73.1c-0.2,0.3-0.5,0.6-0.9,0.8c-0.4,0.2-0.9,0.3-1.5,0.3h-1.2v2.7H38v-7.2h2.6c0.6,0,1,0.1,1.4,0.3
			c0.4,0.2,0.7,0.5,0.9,0.8c0.2,0.3,0.3,0.7,0.3,1.1C43.3,72.4,43.2,72.7,43,73.1z M41.5,72.7c0.2-0.2,0.3-0.4,0.3-0.8
			c0-0.7-0.4-1-1.2-1h-1.1V73h1.1C41,73,41.3,72.9,41.5,72.7z"/>
		<path class="st1" d="M46.6,76.5c-0.6-0.3-1-0.8-1.3-1.3c-0.3-0.6-0.5-1.2-0.5-1.9c0-0.7,0.2-1.3,0.5-1.9c0.3-0.6,0.8-1,1.3-1.3
			c0.6-0.3,1.2-0.5,1.8-0.5c0.7,0,1.3,0.2,1.9,0.5c0.6,0.3,1,0.8,1.3,1.3c0.3,0.6,0.5,1.2,0.5,1.9c0,0.7-0.2,1.3-0.5,1.9
			c-0.3,0.6-0.8,1-1.3,1.3S49.1,77,48.5,77S47.2,76.8,46.6,76.5z M49.6,75.4c0.3-0.2,0.6-0.5,0.8-0.8s0.3-0.8,0.3-1.3
			c0-0.5-0.1-0.9-0.3-1.3c-0.2-0.4-0.4-0.6-0.8-0.8c-0.3-0.2-0.7-0.3-1.1-0.3c-0.4,0-0.8,0.1-1.1,0.3s-0.6,0.5-0.8,0.8
			c-0.2,0.4-0.3,0.8-0.3,1.3c0,0.5,0.1,0.9,0.3,1.3s0.4,0.6,0.8,0.8c0.3,0.2,0.7,0.3,1.1,0.3C48.9,75.7,49.3,75.6,49.6,75.4z"/>
		<path class="st1" d="M55.2,76.7c-0.4-0.2-0.7-0.4-0.9-0.7c-0.2-0.3-0.4-0.7-0.4-1.1h1.5c0,0.3,0.1,0.5,0.3,0.7
			c0.2,0.2,0.4,0.3,0.8,0.3c0.3,0,0.6-0.1,0.8-0.2c0.2-0.2,0.3-0.4,0.3-0.6c0-0.2-0.1-0.4-0.2-0.5c-0.1-0.1-0.3-0.2-0.5-0.3
			s-0.5-0.2-0.8-0.3c-0.5-0.1-0.8-0.3-1.1-0.4c-0.3-0.1-0.5-0.3-0.7-0.6s-0.3-0.6-0.3-1.1c0-0.4,0.1-0.8,0.3-1.1
			c0.2-0.3,0.5-0.6,0.9-0.7c0.4-0.2,0.8-0.3,1.3-0.3c0.7,0,1.3,0.2,1.8,0.5c0.5,0.4,0.7,0.9,0.8,1.5h-1.6c0-0.2-0.1-0.4-0.3-0.6
			c-0.2-0.2-0.5-0.2-0.8-0.2c-0.3,0-0.5,0.1-0.7,0.2c-0.2,0.1-0.3,0.4-0.3,0.6c0,0.2,0.1,0.4,0.2,0.5c0.1,0.1,0.3,0.2,0.5,0.3
			c0.2,0.1,0.5,0.2,0.8,0.3c0.5,0.1,0.8,0.3,1.1,0.4c0.3,0.1,0.5,0.3,0.8,0.6c0.2,0.3,0.3,0.6,0.3,1.1c0,0.4-0.1,0.7-0.3,1.1
			c-0.2,0.3-0.5,0.6-0.9,0.8c-0.4,0.2-0.8,0.3-1.4,0.3C56.1,77,55.6,76.9,55.2,76.7z"/>
		<path class="st1" d="M62.6,69.8v7.2h-1.4v-7.2H62.6z"/>
		<path class="st1" d="M65.1,71.4c0.3-0.6,0.8-1,1.3-1.3c0.6-0.3,1.2-0.5,1.9-0.5c0.8,0,1.5,0.2,2.1,0.6s1,1,1.3,1.7h-1.7
			c-0.2-0.3-0.4-0.6-0.7-0.8c-0.3-0.2-0.6-0.3-1-0.3c-0.4,0-0.8,0.1-1.1,0.3c-0.3,0.2-0.6,0.5-0.8,0.8c-0.2,0.4-0.3,0.8-0.3,1.3
			c0,0.5,0.1,0.9,0.3,1.2c0.2,0.4,0.4,0.6,0.8,0.8c0.3,0.2,0.7,0.3,1.1,0.3c0.4,0,0.7-0.1,1-0.3c0.3-0.2,0.5-0.4,0.7-0.8h1.7
			c-0.2,0.7-0.7,1.3-1.3,1.7C69.7,76.8,69,77,68.2,77c-0.7,0-1.3-0.2-1.9-0.5c-0.6-0.3-1-0.7-1.3-1.3c-0.3-0.6-0.5-1.2-0.5-1.9
			C64.6,72.6,64.8,72,65.1,71.4z"/>
		<path class="st1" d="M75.1,69.8v7.2h-1.4v-7.2H75.1z"/>
		<path class="st1" d="M78.9,76.5c-0.6-0.3-1-0.8-1.3-1.3c-0.3-0.6-0.5-1.2-0.5-1.9c0-0.7,0.2-1.3,0.5-1.9c0.3-0.6,0.8-1,1.3-1.3
			c0.6-0.3,1.2-0.5,1.8-0.5c0.7,0,1.3,0.2,1.9,0.5c0.6,0.3,1,0.8,1.3,1.3s0.5,1.2,0.5,1.9c0,0.7-0.2,1.3-0.5,1.9s-0.8,1-1.3,1.3
			S81.4,77,80.8,77S79.5,76.8,78.9,76.5z M81.9,75.4c0.3-0.2,0.6-0.5,0.8-0.8s0.3-0.8,0.3-1.3c0-0.5-0.1-0.9-0.3-1.3
			c-0.2-0.4-0.4-0.6-0.8-0.8c-0.3-0.2-0.7-0.3-1.1-0.3c-0.4,0-0.8,0.1-1.1,0.3s-0.6,0.5-0.8,0.8c-0.2,0.4-0.3,0.8-0.3,1.3
			c0,0.5,0.1,0.9,0.3,1.3s0.4,0.6,0.8,0.8c0.3,0.2,0.7,0.3,1.1,0.3C81.2,75.7,81.6,75.6,81.9,75.4z M81.9,68.3l-2.4,1.1v-1l2.4-1.2
			V68.3z"/>
		<path class="st1" d="M92.5,76.9h-1.4L87.8,72v4.9h-1.4v-7.2h1.4l3.3,4.9v-4.9h1.4V76.9z"/>
		<path class="st1" d="M25.7,90.1c-0.6-0.3-1-0.8-1.3-1.3c-0.3-0.6-0.5-1.2-0.5-1.9c0-0.7,0.2-1.3,0.5-1.9c0.3-0.6,0.8-1,1.3-1.3
			c0.6-0.3,1.2-0.5,1.8-0.5c0.7,0,1.3,0.2,1.9,0.5c0.6,0.3,1,0.8,1.3,1.3c0.3,0.6,0.5,1.2,0.5,1.9c0,0.7-0.2,1.3-0.5,1.9
			c-0.3,0.6-0.8,1-1.3,1.3c-0.6,0.3-1.2,0.5-1.8,0.5C26.9,90.6,26.3,90.4,25.7,90.1z M28.7,89c0.3-0.2,0.6-0.5,0.8-0.8
			s0.3-0.8,0.3-1.3s-0.1-0.9-0.3-1.3c-0.2-0.4-0.4-0.6-0.8-0.8c-0.3-0.2-0.7-0.3-1.1-0.3s-0.8,0.1-1.1,0.3s-0.6,0.5-0.8,0.8
			c-0.2,0.4-0.3,0.8-0.3,1.3s0.1,0.9,0.3,1.3c0.2,0.4,0.4,0.6,0.8,0.8c0.3,0.2,0.7,0.3,1.1,0.3S28.4,89.2,28.7,89z"/>
		<path class="st1" d="M36.9,90.5l-1.6-2.8h-0.7v2.8h-1.4v-7.2h2.7c0.6,0,1,0.1,1.4,0.3c0.4,0.2,0.7,0.5,0.9,0.8
			c0.2,0.3,0.3,0.7,0.3,1.1c0,0.5-0.1,0.9-0.4,1.3c-0.3,0.4-0.7,0.6-1.2,0.8l1.7,2.9H36.9z M34.6,86.6h1.2c0.4,0,0.7-0.1,0.9-0.3
			c0.2-0.2,0.3-0.4,0.3-0.8c0-0.3-0.1-0.6-0.3-0.8c-0.2-0.2-0.5-0.3-0.9-0.3h-1.2V86.6z"/>
		<path class="st1" d="M45.1,83.8c0.6,0.3,1,0.7,1.3,1.3c0.3,0.5,0.5,1.2,0.5,1.9s-0.2,1.3-0.5,1.9c-0.3,0.5-0.8,1-1.3,1.2
			c-0.6,0.3-1.2,0.4-2,0.4h-2.5v-7.2h2.5C43.9,83.3,44.5,83.5,45.1,83.8z M44.8,88.6c0.4-0.4,0.6-1,0.6-1.7c0-0.7-0.2-1.3-0.6-1.7
			c-0.4-0.4-1-0.6-1.7-0.6h-1v4.7h1C43.8,89.3,44.4,89.1,44.8,88.6z"/>
		<path class="st1" d="M50.3,83.3v7.2h-1.4v-7.2H50.3z"/>
		<path class="st1" d="M58.7,90.5h-1.4L54,85.6v4.9h-1.4v-7.2H54l3.3,4.9v-4.9h1.4V90.5z"/>
		<path class="st1" d="M65.4,89.1h-2.9l-0.5,1.4h-1.5l2.6-7.2h1.7l2.6,7.2h-1.5L65.4,89.1z M65,88l-1-3l-1,3H65z"/>
		<path class="st1" d="M72.9,90.5l-1.6-2.8h-0.7v2.8h-1.4v-7.2h2.7c0.6,0,1,0.1,1.4,0.3c0.4,0.2,0.7,0.5,0.9,0.8
			c0.2,0.3,0.3,0.7,0.3,1.1c0,0.5-0.1,0.9-0.4,1.3c-0.3,0.4-0.7,0.6-1.2,0.8l1.7,2.9H72.9z M70.7,86.6h1.2c0.4,0,0.7-0.1,0.9-0.3
			c0.2-0.2,0.3-0.4,0.3-0.8c0-0.3-0.1-0.6-0.3-0.8c-0.2-0.2-0.5-0.3-0.9-0.3h-1.2V86.6z"/>
		<path class="st1" d="M78.1,83.3v7.2h-1.4v-7.2H78.1z"/>
		<path class="st1" d="M84.8,89.1H82l-0.5,1.4H80l2.6-7.2h1.7l2.6,7.2h-1.5L84.8,89.1z M84.4,88l-1-3l-1,3H84.4z"/>
	</g>
	<polygon class="st1" points="23.9,47.6 76.5,47.6 76.5,48.4 23.9,48.4 23.9,47.6 	"/>
	<path class="st1" d="M36.2,17.7v4h-6.5v20.5h-4.9V21.6h-6.5v-4H36.2z"/>
	<path class="st1" d="M52.3,42.1L47,32.6h-2.3v9.5h-4.9V17.7h9.2c1.9,0,3.5,0.3,4.8,1c1.3,0.7,2.3,1.6,3,2.7c0.7,1.1,1,2.4,1,3.8
		c0,1.6-0.5,3.1-1.4,4.4c-0.9,1.3-2.3,2.2-4.2,2.7l5.8,9.9H52.3z M44.6,28.9h4.1c1.3,0,2.3-0.3,3-1c0.7-0.6,1-1.5,1-2.7
		c0-1.1-0.3-2-1-2.6c-0.7-0.6-1.6-0.9-3-0.9h-4.1V28.9z"/>
	<path class="st2" d="M67.2,40.7c-1.9-1.1-3.4-2.6-4.6-4.5c-1.1-1.9-1.7-4.1-1.7-6.5c0-2.4,0.6-4.5,1.7-6.4c1.1-1.9,2.6-3.4,4.6-4.5
		c1.9-1.1,4-1.6,6.3-1.6c2.3,0,4.4,0.5,6.3,1.6c1.9,1.1,3.4,2.6,4.5,4.5c1.1,1.9,1.7,4,1.7,6.4c0,2.4-0.6,4.6-1.7,6.5
		c-1.1,1.9-2.6,3.4-4.5,4.5c-1.9,1.1-4,1.6-6.3,1.6C71.2,42.4,69.1,41.8,67.2,40.7z M77.4,37c1.1-0.7,2-1.6,2.6-2.9
		c0.6-1.2,0.9-2.7,0.9-4.3s-0.3-3.1-0.9-4.3c-0.6-1.2-1.5-2.2-2.6-2.8c-1.1-0.7-2.4-1-3.9-1c-1.5,0-2.8,0.3-3.9,1
		c-1.1,0.7-2,1.6-2.6,2.8c-0.6,1.2-0.9,2.7-0.9,4.3s0.3,3.1,0.9,4.3c0.6,1.2,1.5,2.2,2.6,2.9c1.1,0.7,2.4,1,3.9,1
		C75,38,76.3,37.6,77.4,37z"/>
</g>
<g>
	<g>
		<path class="st3" d="M125.6,29.6c-3.8,0-7.4-2-9.4-5.5c-1.4-2.5-1.7-5.4-0.9-8.1s2.6-5,5.1-6.4c2.5-1.4,5.4-1.7,8.1-0.9
			c2.7,0.8,5,2.6,6.4,5.1c1.4,2.5,1.7,5.4,0.9,8.1c-0.8,2.7-2.6,5-5.1,6.4C129.1,29.2,127.4,29.6,125.6,29.6z M125.6,9.4
			c-1.5,0-3.1,0.4-4.6,1.2c-4.6,2.5-6.3,8.3-3.7,12.9c1.2,2.2,3.2,3.8,5.7,4.5c2.4,0.7,5,0.4,7.2-0.8c2.2-1.2,3.8-3.2,4.5-5.7
			c0.7-2.4,0.4-5-0.8-7.2C132.2,11.2,129,9.4,125.6,9.4z"/>
	</g>
</g>
<circle class="st4" cx="136.7" cy="39.1" r="10.1"/>
</svg>
